<svg width="1097" height="625" viewBox="0 0 1097 625" fill="none" xmlns="http://www.w3.org/2000/svg">
<path d="M188.223 62.2371C184.757 55.3053 199.508 46.0963 204.068 43.5629C213.346 38.4086 225.266 35.6278 235.839 37.7423C239.768 38.5283 238.823 41.9462 239.315 45.018C239.993 49.2548 246.238 40.7291 247.561 39.6017C256.832 31.6986 269.833 32.5138 280.867 35.7213C288.23 37.8617 283.279 45.6322 288.79 47.9283C292.81 49.6034 311.926 34.2372 317.488 32.5685C326.407 29.8929 326.61 37.3025 332.848 41.461C333.199 41.695 333.129 40.6402 333.414 40.3292C334.815 38.8006 337.029 38.164 338.911 37.4998C342.066 36.3864 344.459 35.846 347.723 36.9339C362.089 41.7226 362.626 50.3873 365.427 63.6923C365.755 65.2518 366.879 73.6776 365.184 74.525C359.214 77.5102 347.853 75.3001 341.498 75.3334C326.555 75.4116 311.472 75.6987 296.631 77.5969C286.455 78.8986 277.976 83.2287 267.933 84.3876C255.528 85.8189 244.357 86.9745 231.716 86.9745C220.614 86.9745 209.512 86.9745 198.409 86.9745" stroke="#E6EFF5" stroke-opacity="0.5" stroke-width="64" stroke-linecap="round"/>
<path d="M902.696 247.04C915.039 247.04 927.225 244.129 939.802 244.129C958.998 244.129 978.63 245.291 997.765 243.806C1012.97 242.626 1027.46 241.219 1042.87 241.219C1046.17 241.219 1060.57 241.309 1062.44 239.441C1069.51 232.366 1053.52 209.629 1043.2 217.452C1042 218.36 1039.49 224.085 1039.8 223.919C1045.91 220.631 1051.68 203.822 1053.71 197.484C1055.7 191.268 1002.9 203.36 996.553 208.721C984.639 218.786 996.042 222.258 1006.09 221.332C1017.24 220.306 1024.82 219.509 1024.93 207.589C1025 198.799 1025.74 189.397 1023.8 180.75C1022.71 175.936 1011.11 180.279 1008.11 181.478C1004.46 182.94 1002.2 185.457 1000.27 188.834C1000.04 189.231 996.73 198.557 997.28 198.373C1001.27 197.044 1003.51 184.494 1003.91 181.397C1005.59 168.497 991.832 173.926 984.346 176.546C977.036 179.105 969.507 182.489 964.782 188.915C964.397 189.439 959.016 201.744 961.549 201.284C967.663 200.172 974.398 188.97 976.262 183.822C979.549 174.739 981.194 168.173 970.522 171.777C958.401 175.869 941.443 177.12 930.829 184.469C925.49 188.165 927.552 197.94 927.434 203.386C927.281 210.41 920.76 230.671 922.017 223.757C923.193 217.29 928.877 210.685 931.799 204.841" stroke="#E6EFF5" stroke-opacity="0.5" stroke-width="64" stroke-linecap="round"/>
<path d="M68.453 592.602C78.863 584.794 95.8237 587.772 107.893 587.772C127.173 587.772 144.827 578.348 164.235 578.114C198.638 577.699 227.151 581.301 258.138 565.504C270.994 558.95 262.758 534.708 257.333 525.528C252.104 516.679 236.454 518.713 228.357 523.113C215.985 529.837 214.097 542.019 216.284 520.698C216.917 514.524 223.962 486.064 212.26 486.356C189.564 486.924 160.041 503.353 155.918 527.406C152.177 549.228 154.777 527.875 147.6 520.698C144.212 517.31 129.627 512.918 124.527 512.918C112.74 512.918 109.502 527.209 109.502 536.796C109.502 548.272 112.891 512.354 107.088 502.454C101.523 492.961 88.7959 501.87 83.2093 505.942C67.3989 517.467 49.8345 527.167 34.3794 538.943C31.3289 541.267 31.9885 546.251 32.2331 549.674C32.8839 558.786 44.6631 573.284 53.965 573.284" stroke="#E6EFF5" stroke-opacity="0.5" stroke-width="64" stroke-linecap="round"/>
<path d="M76.7078 547.165C76.8117 549.036 77.8342 550.769 78.4705 552.486C79.0214 553.974 79.7927 555.716 80.8592 556.934C81.4731 557.636 81.8656 558.359 82.869 558.434C83.4691 558.478 83.8245 558.738 83.8245 559.323" stroke="#E5EDE5" stroke-width="5" stroke-linecap="round"/>
<path d="M184.644 539.752C184.993 543.236 187.797 546.989 187 550.575C186.942 550.838 186.453 551.243 186.193 550.954C185.492 550.176 185.398 546.998 185.303 545.979C185.068 543.439 185.237 540.821 185.237 538.27" stroke="#E5EDE5" stroke-width="5" stroke-linecap="round"/>
</svg>
