<svg width="100%" height="100%" viewBox="0 0 440 352" fill="none" xmlns="http://www.w3.org/2000/svg">
<g clip-path="url(#clip0_121_33)">
<path d="M132.669 144.771C132.669 144.771 145.574 146.456 143.887 159.343" stroke="black" stroke-width="6.69" stroke-linejoin="bevel"/>
<path d="M138.635 129.46C138.635 129.46 165.001 141.851 152.593 168.187" stroke="black" stroke-width="6.69" stroke-linejoin="bevel"/>
<path d="M36.0469 206.744C36.0469 206.744 26.4711 215.418 35.1574 224.981" stroke="black" stroke-width="6.69" stroke-linejoin="bevel"/>
<path d="M19.6294 209.945C19.6294 209.945 5.13479 234.968 30.193 249.443" stroke="black" stroke-width="6.69" stroke-linejoin="bevel"/>
<path d="M19.2368 188.22C19.2368 188.22 -10.4393 207.143 8.50969 236.777" stroke="black" stroke-width="6.69" stroke-linejoin="bevel"/>
<path d="M275.823 67.1206C275.823 67.1206 295.374 52.0845 311.53 63.6719V71.8039C311.53 71.8039 292.875 85.0047 292.875 115.417H303.851V131.015C303.851 131.015 324.089 144.882 337.569 124.117" stroke="black" stroke-width="6.69" stroke-linejoin="bevel"/>
<path d="M296.996 92.0786C298.893 92.0786 300.43 88.236 300.43 83.4959C300.43 78.7557 298.893 74.9131 296.996 74.9131C295.1 74.9131 293.562 78.7557 293.562 83.4959C293.562 88.236 295.1 92.0786 296.996 92.0786Z" fill="black"/>
<path d="M334.234 92.0786C336.13 92.0786 337.668 88.236 337.668 83.4959C337.668 78.7557 336.13 74.9131 334.234 74.9131C332.337 74.9131 330.8 78.7557 330.8 83.4959C330.8 88.236 332.337 92.0786 334.234 92.0786Z" fill="black"/>
<path d="M322.892 63.5608C322.892 63.5608 342.442 53.2863 358.598 67.0096V81.778C361.967 70.8568 371.523 54.4098 384.507 64.7561C389.628 68.832 392.506 75.5597 391.924 82.0719C390.734 95.4621 378.116 100.185 366.598 102.183C363.857 108.8 361.62 115.626 359.9 122.582C356.97 134.463 359.357 154.483 376.795 150.545C382.715 149.206 387.522 143.908 388.281 137.893C388.549 135.77 388.333 133.529 387.32 131.642C386.306 129.754 384.422 128.265 382.283 128.062C378.934 127.742 375.906 130.708 375.291 134.013C374.682 137.318 376.01 140.708 377.946 143.458C386.423 155.47 405.13 155.927 414.817 145.202C416.943 142.844 418.65 139.878 418.578 136.704C418.507 133.529 416.178 130.283 413.006 130.041C410.219 129.826 407.622 132.001 406.746 134.646C405.869 137.292 406.445 140.244 407.662 142.752C410.016 147.625 414.811 151.244 420.148 152.171C434.748 154.712 440.589 140.499 436.533 128.513C431.039 112.268 426.99 95.449 421.247 79.3155C415.759 63.8874 411.92 44.4096 391.643 41.7251C392.297 34.9581 390.354 27.9887 386.319 22.5216C382.218 16.963 376.2 13.1158 369.947 10.1634C352.025 1.71131 331.055 -0.111064 311.936 5.1209C290.122 11.0975 271.46 25.7679 257.195 43.2927C242.923 60.8175 232.621 81.1771 222.986 101.615C219.944 108.068 216.922 114.659 215.935 121.726C214.947 128.787 216.262 136.501 221.024 141.812C224.785 146.005 230.286 148.291 235.819 149.349C241.922 150.519 248.652 150.225 253.774 146.717C258.895 143.209 261.59 135.802 258.411 130.472C257.345 128.683 255.52 127.174 253.434 127.154C251.105 127.135 249.11 128.99 248.168 131.113C245.356 137.455 251.236 145.391 258.176 145.711C265.116 146.031 271.343 138.363 272.697 131.557L273.05 129.787C273.122 130.695 273.881 124.698 273.881 124.698C274.502 132.621 276.399 140.447 279.473 147.782C280.513 150.264 281.717 152.733 283.528 154.718C288.637 160.323 297.349 160.885 304.78 159.33C308.796 158.487 311.242 177.88 311.125 180.199C310.444 194.105 302.059 202.779 290.03 208.292C270.27 217.352 247.285 215.222 227.597 224.661C221.102 227.777 215.582 233.178 212.645 239.743C207.68 250.827 202.84 261.964 197.934 273.075C191.459 287.745 184.983 302.415 178.318 317.001C176.944 320.005 175.564 323.01 174.138 325.989C172.287 329.862 169.22 333.709 168.788 338.014C168.494 340.953 169.383 344.049 171.424 346.185C175.093 350.039 182.086 349.686 184.924 345.009C186.625 342.207 186.389 338.556 185.101 335.545C183.812 332.527 181.608 330.012 179.41 327.576C177.474 325.427 175.636 323.18 173.844 320.9C173.236 319.992 172.418 318.771 172.418 318.771L131.086 257.144C131.289 247.797 134.389 238.743 138.307 230.252C142.225 221.761 146.981 213.674 150.8 205.144C151.566 203.433 152.311 201.506 151.729 199.723C151.056 197.645 148.688 196.463 146.503 196.542C144.318 196.62 142.291 197.704 140.479 198.939C136.083 201.937 132.414 205.987 129.876 210.657C129.582 211.192 129.229 211.8 128.627 211.917C128.175 212.002 127.724 211.78 127.299 211.61C125.055 210.716 122.426 211.245 120.392 212.538C118.358 213.831 116.847 215.804 115.617 217.881C114.433 219.886 113.563 222.695 115.205 224.347C117.141 226.294 120.529 224.667 122.262 222.532C123.505 220.997 124.428 219.279 125.127 217.45C125.853 212.309 127.103 203.433 127.103 203.433C129.301 187.828 124.199 171.087 115.604 157.873C113.89 155.241 111.817 152.596 108.86 151.531C106.656 150.741 104.033 151.087 102.43 152.896C99.7618 155.907 101.704 159.657 102.764 162.857C104.151 167.024 105.413 171.231 106.558 175.47C108.808 183.837 110.574 192.335 111.843 200.905C111.359 196.692 109.632 191.982 108.056 188.037C106.525 184.196 104.596 180.519 102.313 177.077C97.7537 170.186 91.7819 164.222 84.7962 159.787C82.3172 158.213 79.6747 156.809 76.7967 156.247C74.5008 155.796 71.5967 156.214 70.6744 158.363C70.053 159.813 70.6024 161.485 71.2565 162.929C73.9318 168.84 78.216 173.844 82.0686 179.069C88.047 187.182 93.0704 195.999 97.0015 205.275C92.5799 198.579 86.4183 193.184 79.8316 188.592C72.9768 183.811 65.2716 179.722 56.9254 179.174C55.2771 179.062 53.5765 179.102 52.0459 179.735C50.5219 180.369 49.2006 181.695 48.9782 183.334C48.7689 184.843 49.5015 186.326 50.378 187.567C54.538 193.465 61.8507 196.026 68.1954 199.481C72.9375 202.067 77.3657 205.346 80.7605 209.546C83.1675 212.531 85.1102 216.019 88.2629 218.194C88.2629 218.194 89.1851 218.835 90.1074 219.468C88.9431 218.9 87.7788 218.332 87.7788 218.332C78.3861 213.733 67.6459 209.984 57.6253 212.982C55.2378 213.694 52.9158 214.824 51.2152 216.64C50.5611 217.339 49.992 218.181 49.8809 219.129C49.5996 221.539 52.1832 223.224 54.4791 224.021C61.8376 226.581 69.9156 226.398 77.3003 228.867C80.0344 229.782 82.7816 231.173 84.358 233.583C85.5222 235.367 85.9278 237.515 86.4249 239.586C88.8712 249.763 93.7114 260.057 103.065 265.511C105.766 267.085 108.481 268.666 111.326 270.011C111.876 270.272 112.432 270.527 112.883 270.939C113.432 271.442 113.766 272.127 114.086 272.794C116.716 278.235 119.47 283.617 122.348 288.927" stroke="black" stroke-width="6.69" stroke-linejoin="bevel"/>
</g>
<defs>
<clipPath id="clip0_121_33">
<rect width="100%" height="100%" fill="white"/>
</clipPath>
</defs>
</svg>
