<svg width="32" height="32" viewBox="0 0 32 32" fill="none" xmlns="http://www.w3.org/2000/svg">
<path d="M31.1679 28.957C31.313 29.1022 31.4282 29.2746 31.5068 29.4642C31.5853 29.6539 31.6258 29.8572 31.6258 30.0625C31.6258 30.2678 31.5853 30.4711 31.5068 30.6608C31.4282 30.8505 31.313 31.0228 31.1679 31.168C31.0227 31.3132 30.8503 31.4283 30.6607 31.5069C30.471 31.5854 30.2677 31.6259 30.0624 31.6259C29.8571 31.6259 29.6538 31.5854 29.4641 31.5069C29.2744 31.4283 29.1021 31.3132 28.9569 31.168L15.9999 18.209L3.04286 31.168C2.74967 31.4612 2.35202 31.6259 1.93739 31.6259C1.52276 31.6259 1.12511 31.4612 0.831923 31.168C0.538735 30.8748 0.374023 30.4771 0.374023 30.0625C0.374023 29.6479 0.538735 29.2502 0.831923 28.957L13.7909 16L0.831923 3.04298C0.538735 2.74979 0.374023 2.35215 0.374023 1.93751C0.374023 1.52288 0.538735 1.12523 0.831923 0.832046C1.12511 0.538857 1.52276 0.374146 1.93739 0.374146C2.35202 0.374146 2.74967 0.538857 3.04286 0.832046L15.9999 13.791L28.9569 0.832046C29.2501 0.538857 29.6478 0.374145 30.0624 0.374146C30.477 0.374146 30.8747 0.538857 31.1679 0.832046C31.4611 1.12523 31.6258 1.52288 31.6258 1.93751C31.6258 2.35215 31.4611 2.74979 31.1679 3.04298L18.2089 16L31.1679 28.957Z" fill="white"/>
</svg>
