<svg width="49" height="48" viewBox="0 0 49 48" fill="none" xmlns="http://www.w3.org/2000/svg">
<g clip-path="url(#clip0_184_228)">
<path d="M24.1431 0C20.9913 0 17.8705 0.620778 14.9587 1.82689C12.0468 3.033 9.40111 4.80083 7.1725 7.02944C2.67163 11.5303 0.143066 17.6348 0.143066 24C0.143066 34.608 7.03107 43.608 16.5591 46.8C17.7591 46.992 18.1431 46.248 18.1431 45.6V41.544C11.4951 42.984 10.0791 38.328 10.0791 38.328C8.97507 35.544 7.41507 34.8 7.41507 34.8C5.23107 33.312 7.58307 33.36 7.58307 33.36C9.98307 33.528 11.2551 35.832 11.2551 35.832C13.3431 39.48 16.8711 38.4 18.2391 37.824C18.4551 36.264 19.0791 35.208 19.7511 34.608C14.4231 34.008 8.83107 31.944 8.83107 22.8C8.83107 20.136 9.74307 18 11.3031 16.296C11.0631 15.696 10.2231 13.2 11.5431 9.96C11.5431 9.96 13.5591 9.312 18.1431 12.408C20.0391 11.88 22.1031 11.616 24.1431 11.616C26.1831 11.616 28.2471 11.88 30.1431 12.408C34.7271 9.312 36.7431 9.96 36.7431 9.96C38.0631 13.2 37.2231 15.696 36.9831 16.296C38.5431 18 39.4551 20.136 39.4551 22.8C39.4551 31.968 33.8391 33.984 28.4871 34.584C29.3511 35.328 30.1431 36.792 30.1431 39.024V45.6C30.1431 46.248 30.5271 47.016 31.7511 46.8C41.2791 43.584 48.1431 34.608 48.1431 24C48.1431 20.8483 47.5223 17.7274 46.3162 14.8156C45.1101 11.9038 43.3422 9.25804 41.1136 7.02944C38.885 4.80083 36.2393 3.033 33.3275 1.82689C30.4157 0.620778 27.2948 0 24.1431 0Z" fill="#F8F8F8"/>
</g>
<defs>
<clipPath id="clip0_184_228">
<rect width="48" height="48" fill="white" transform="translate(0.143066)"/>
</clipPath>
</defs>
</svg>
