<svg width="31" height="48" viewBox="0 0 31 48" fill="none" xmlns="http://www.w3.org/2000/svg">
<path d="M24.1431 3C24.9387 3 25.7018 3.31607 26.2644 3.87868C26.827 4.44129 27.1431 5.20435 27.1431 6V42C27.1431 42.7957 26.827 43.5587 26.2644 44.1213C25.7018 44.6839 24.9387 45 24.1431 45H6.14307C5.34742 45 4.58436 44.6839 4.02175 44.1213C3.45914 43.5587 3.14307 42.7957 3.14307 42V6C3.14307 5.20435 3.45914 4.44129 4.02175 3.87868C4.58436 3.31607 5.34742 3 6.14307 3H24.1431ZM6.14307 0C4.55177 0 3.02564 0.632141 1.90043 1.75736C0.775207 2.88258 0.143066 4.4087 0.143066 6V42C0.143066 43.5913 0.775207 45.1174 1.90043 46.2426C3.02564 47.3679 4.55177 48 6.14307 48H24.1431C25.7344 48 27.2605 47.3679 28.3857 46.2426C29.5109 45.1174 30.1431 43.5913 30.1431 42V6C30.1431 4.4087 29.5109 2.88258 28.3857 1.75736C27.2605 0.632141 25.7344 0 24.1431 0L6.14307 0Z" fill="#F8F8F8"/>
<path d="M15.1431 42C15.9387 42 16.7018 41.6839 17.2644 41.1213C17.827 40.5587 18.1431 39.7956 18.1431 39C18.1431 38.2044 17.827 37.4413 17.2644 36.8787C16.7018 36.3161 15.9387 36 15.1431 36C14.3474 36 13.5844 36.3161 13.0217 36.8787C12.4591 37.4413 12.1431 38.2044 12.1431 39C12.1431 39.7956 12.4591 40.5587 13.0217 41.1213C13.5844 41.6839 14.3474 42 15.1431 42Z" fill="#F8F8F8"/>
</svg>
