<svg width="31" height="32" viewBox="0 0 31 32" fill="none" xmlns="http://www.w3.org/2000/svg">
<g clip-path="url(#clip0_127_237)">
<path d="M27.3971 0.243958C28.2986 0.243958 29.1632 0.602078 29.8006 1.23954C30.4381 1.877 30.7962 2.74158 30.7962 3.64308V27.4369C30.7962 28.3384 30.4381 29.203 29.8006 29.8405C29.1632 30.4779 28.2986 30.8361 27.3971 30.8361H3.60322C2.70172 30.8361 1.83714 30.4779 1.19968 29.8405C0.562222 29.203 0.204102 28.3384 0.204102 27.4369V3.64308C0.204102 2.74158 0.562222 1.877 1.19968 1.23954C1.83714 0.602078 2.70172 0.243958 3.60322 0.243958H27.3971ZM26.5473 26.5872V17.5795C26.5473 16.11 25.9636 14.7008 24.9245 13.6617C23.8855 12.6227 22.4762 12.0389 21.0067 12.0389C19.5621 12.0389 17.8795 12.9227 17.0638 14.2483V12.3618H12.322V26.5872H17.0638V18.2083C17.0638 16.8997 18.1175 15.8289 19.4261 15.8289C20.0572 15.8289 20.6624 16.0796 21.1086 16.5258C21.5548 16.9721 21.8055 17.5773 21.8055 18.2083V26.5872H26.5473ZM6.7984 9.69352C7.55566 9.69352 8.28191 9.3927 8.81738 8.85723C9.35284 8.32177 9.65366 7.59552 9.65366 6.83826C9.65366 5.25766 8.37899 3.966 6.7984 3.966C6.03663 3.966 5.30606 4.26861 4.76741 4.80726C4.22875 5.34592 3.92614 6.07649 3.92614 6.83826C3.92614 8.41885 5.21781 9.69352 6.7984 9.69352ZM9.16079 26.5872V12.3618H4.45301V26.5872H9.16079Z" fill="#324AA9"/>
</g>
<defs>
<clipPath id="clip0_127_237">
<rect width="31" height="31" fill="white" transform="translate(0 0.0400085)"/>
</clipPath>
</defs>
</svg>
