<svg width="48" height="48" viewBox="0 0 48 48" fill="none" xmlns="http://www.w3.org/2000/svg">
<path d="M42.5643 0.315918C43.9601 0.315918 45.2988 0.870427 46.2859 1.85746C47.2729 2.84449 47.8274 4.1832 47.8274 5.57908V42.4212C47.8274 43.8171 47.2729 45.1558 46.2859 46.1428C45.2988 47.1298 43.9601 47.6843 42.5643 47.6843H5.72214C4.32627 47.6843 2.98756 47.1298 2.00053 46.1428C1.01349 45.1558 0.458984 43.8171 0.458984 42.4212V5.57908C0.458984 4.1832 1.01349 2.84449 2.00053 1.85746C2.98756 0.870427 4.32627 0.315918 5.72214 0.315918H42.5643ZM41.2485 41.1054V27.158C41.2485 24.8827 40.3446 22.7007 38.7357 21.0918C37.1269 19.4829 34.9448 18.5791 32.6695 18.5791C30.4327 18.5791 27.8274 19.9475 26.5642 22.0001V19.0791H19.2221V41.1054H26.5642V28.1317C26.5642 26.1054 28.1958 24.4475 30.2221 24.4475C31.1993 24.4475 32.1364 24.8357 32.8273 25.5266C33.5182 26.2175 33.9064 27.1546 33.9064 28.1317V41.1054H41.2485ZM10.6695 14.9475C11.842 14.9475 12.9666 14.4817 13.7957 13.6526C14.6248 12.8235 15.0906 11.699 15.0906 10.5264C15.0906 8.07908 13.1169 6.07908 10.6695 6.07908C9.49 6.07908 8.35879 6.54764 7.52475 7.38168C6.6907 8.21572 6.22214 9.34693 6.22214 10.5264C6.22214 12.9738 8.22214 14.9475 10.6695 14.9475ZM14.3274 41.1054V19.0791H7.03793V41.1054H14.3274Z" fill="white"/>
</svg>
