<svg width="31" height="48" viewBox="0 0 31 48" fill="none" xmlns="http://www.w3.org/2000/svg">
<path d="M24.1428 3C24.9385 3 25.7015 3.31607 26.2641 3.87868C26.8268 4.44129 27.1428 5.20435 27.1428 6V42C27.1428 42.7956 26.8268 43.5587 26.2641 44.1213C25.7015 44.6839 24.9385 45 24.1428 45H6.14282C5.34717 45 4.58411 44.6839 4.0215 44.1213C3.45889 43.5587 3.14282 42.7956 3.14282 42V6C3.14282 5.20435 3.45889 4.44129 4.0215 3.87868C4.58411 3.31607 5.34717 3 6.14282 3H24.1428ZM6.14282 0C4.55152 0 3.0254 0.632141 1.90018 1.75736C0.774963 2.88258 0.142822 4.4087 0.142822 6V42C0.142822 43.5913 0.774963 45.1174 1.90018 46.2426C3.0254 47.3679 4.55152 48 6.14282 48H24.1428C25.7341 48 27.2602 47.3679 28.3855 46.2426C29.5107 45.1174 30.1428 43.5913 30.1428 42V6C30.1428 4.4087 29.5107 2.88258 28.3855 1.75736C27.2602 0.632141 25.7341 0 24.1428 0L6.14282 0Z" fill="#324AA9"/>
<path d="M15.1428 42C15.9385 42 16.7015 41.6839 17.2641 41.1213C17.8268 40.5587 18.1428 39.7956 18.1428 39C18.1428 38.2044 17.8268 37.4413 17.2641 36.8787C16.7015 36.3161 15.9385 36 15.1428 36C14.3472 36 13.5841 36.3161 13.0215 36.8787C12.4589 37.4413 12.1428 38.2044 12.1428 39C12.1428 39.7956 12.4589 40.5587 13.0215 41.1213C13.5841 41.6839 14.3472 42 15.1428 42Z" fill="#324AA9"/>
</svg>
